<mxfile host="app.diagrams.net" modified="2021-04-03T15:42:29.415Z" agent="5.0 (Windows NT 10.0; Win64; x64) AppleWebKit/537.36 (KHTML, like Gecko) Chrome/89.0.4389.114 Safari/537.36" etag="s2CZaQOAr3R4RnMazNRR" version="14.5.6" type="github">
  <diagram id="pMp6YSTTtzM_NJOzA2fS" name="Page-1">
    <mxGraphModel dx="1038" dy="580" grid="0" gridSize="10" guides="1" tooltips="1" connect="1" arrows="1" fold="1" page="1" pageScale="1" pageWidth="827" pageHeight="1169" math="0" shadow="0">
      <root>
        <mxCell id="0" />
        <mxCell id="1" parent="0" />
        <mxCell id="FfEpJe8ueplYhd8HVw07-1" value="&lt;font style=&quot;font-size: 16px&quot;&gt;&lt;b&gt;空间配置器 Allocator&lt;/b&gt;&lt;br&gt;std::allocator&lt;br&gt;malloc_allocator&lt;br&gt;default_allocator&lt;br&gt;&lt;/font&gt;" style="rounded=1;whiteSpace=wrap;html=1;" vertex="1" parent="1">
          <mxGeometry x="30" y="80" width="170" height="80" as="geometry" />
        </mxCell>
        <mxCell id="FfEpJe8ueplYhd8HVw07-2" value="&lt;font style=&quot;font-size: 16px&quot;&gt;&lt;b&gt;容器 Container&lt;/b&gt;&lt;br&gt;Sequence Containers&lt;br&gt;Associative Containers&lt;br&gt;&lt;/font&gt;" style="rounded=1;whiteSpace=wrap;html=1;" vertex="1" parent="1">
          <mxGeometry x="120" y="220" width="170" height="70" as="geometry" />
        </mxCell>
        <mxCell id="FfEpJe8ueplYhd8HVw07-3" value="&lt;font style=&quot;font-size: 16px&quot;&gt;&lt;b&gt;迭代器 Iterator&lt;br&gt;&lt;/b&gt;Container&amp;lt;T&amp;gt;::iterator&lt;br&gt;&lt;/font&gt;" style="rounded=1;whiteSpace=wrap;html=1;" vertex="1" parent="1">
          <mxGeometry x="256" y="100" width="164" height="60" as="geometry" />
        </mxCell>
        <mxCell id="FfEpJe8ueplYhd8HVw07-4" value="&lt;font style=&quot;font-size: 16px&quot;&gt;insert iterators&lt;br&gt;stream iterators&lt;br&gt;reverse iterators&lt;/font&gt;" style="rounded=0;whiteSpace=wrap;html=1;" vertex="1" parent="1">
          <mxGeometry x="276" y="40" width="124" height="60" as="geometry" />
        </mxCell>
        <mxCell id="FfEpJe8ueplYhd8HVw07-5" value="&lt;font style=&quot;font-size: 16px&quot;&gt;&lt;b&gt;算法 Algorithm&lt;/b&gt;&lt;br&gt;Basic mutating algorithms&lt;br&gt;Non-mutating algorithms&lt;br&gt;Sorting and search algorithms&lt;br&gt;&lt;/font&gt;" style="rounded=1;whiteSpace=wrap;html=1;" vertex="1" parent="1">
          <mxGeometry x="369" y="220" width="200" height="100" as="geometry" />
        </mxCell>
        <mxCell id="FfEpJe8ueplYhd8HVw07-6" value="&lt;font style=&quot;font-size: 16px&quot;&gt;&lt;b&gt;仿函数 Functor&lt;/b&gt;&lt;br&gt;Arithmetic operations&lt;br&gt;Comparisons&lt;br&gt;Logical operations&lt;br&gt;Identity and projection&lt;br&gt;&lt;/font&gt;" style="rounded=1;whiteSpace=wrap;html=1;" vertex="1" parent="1">
          <mxGeometry x="40" y="350" width="170" height="110" as="geometry" />
        </mxCell>
        <mxCell id="FfEpJe8ueplYhd8HVw07-7" value="&lt;span style=&quot;font-size: 16px&quot;&gt;binder1st, binder2nd&lt;br&gt;unary_negate, binary_negate&lt;br&gt;unary_compose, binary_compose&lt;br&gt;&lt;/span&gt;" style="rounded=0;whiteSpace=wrap;html=1;" vertex="1" parent="1">
          <mxGeometry x="210" y="370" width="250" height="70" as="geometry" />
        </mxCell>
        <mxCell id="FfEpJe8ueplYhd8HVw07-8" value="&lt;font style=&quot;font-size: 16px&quot; color=&quot;#4c0099&quot;&gt;Functor adaptors&lt;/font&gt;" style="text;html=1;strokeColor=none;fillColor=none;align=center;verticalAlign=middle;whiteSpace=wrap;rounded=0;" vertex="1" parent="1">
          <mxGeometry x="400" y="330" width="150" height="40" as="geometry" />
        </mxCell>
        <mxCell id="FfEpJe8ueplYhd8HVw07-9" value="&lt;font style=&quot;font-size: 16px&quot; color=&quot;#4c0099&quot;&gt;Iterator adaptors&lt;/font&gt;" style="text;html=1;strokeColor=none;fillColor=none;align=center;verticalAlign=middle;whiteSpace=wrap;rounded=0;" vertex="1" parent="1">
          <mxGeometry x="420" y="100" width="150" height="40" as="geometry" />
        </mxCell>
        <mxCell id="FfEpJe8ueplYhd8HVw07-14" value="&lt;font style=&quot;font-size: 14px&quot; color=&quot;#009900&quot;&gt;帮助容器分配内存&lt;/font&gt;" style="text;html=1;strokeColor=none;fillColor=none;align=center;verticalAlign=middle;whiteSpace=wrap;rounded=0;" vertex="1" parent="1">
          <mxGeometry x="60" y="175" width="60" height="30" as="geometry" />
        </mxCell>
        <mxCell id="FfEpJe8ueplYhd8HVw07-15" value="" style="shape=flexArrow;endArrow=classic;html=1;" edge="1" parent="1">
          <mxGeometry width="50" height="50" relative="1" as="geometry">
            <mxPoint x="284" y="212.5" as="sourcePoint" />
            <mxPoint x="414" y="212.5" as="targetPoint" />
            <Array as="points">
              <mxPoint x="345" y="167.5" />
            </Array>
          </mxGeometry>
        </mxCell>
        <mxCell id="FfEpJe8ueplYhd8HVw07-16" value="&lt;font style=&quot;font-size: 14px&quot; color=&quot;#009900&quot;&gt;通过迭代器实现对每个元素的算法处理&lt;/font&gt;" style="text;html=1;strokeColor=none;fillColor=none;align=center;verticalAlign=middle;whiteSpace=wrap;rounded=0;" vertex="1" parent="1">
          <mxGeometry x="414" y="180" width="110" height="20" as="geometry" />
        </mxCell>
        <mxCell id="FfEpJe8ueplYhd8HVw07-18" value="" style="shape=flexArrow;endArrow=classic;html=1;" edge="1" parent="1">
          <mxGeometry width="50" height="50" relative="1" as="geometry">
            <mxPoint x="329" y="360" as="sourcePoint" />
            <mxPoint x="369" y="320" as="targetPoint" />
          </mxGeometry>
        </mxCell>
        <mxCell id="FfEpJe8ueplYhd8HVw07-20" value="&lt;font style=&quot;font-size: 14px&quot; color=&quot;#009900&quot;&gt;辅助算法的实现&lt;/font&gt;" style="text;html=1;strokeColor=none;fillColor=none;align=center;verticalAlign=middle;whiteSpace=wrap;rounded=0;" vertex="1" parent="1">
          <mxGeometry x="230" y="320" width="110" height="20" as="geometry" />
        </mxCell>
        <mxCell id="FfEpJe8ueplYhd8HVw07-21" value="" style="shape=flexArrow;endArrow=classic;html=1;" edge="1" parent="1">
          <mxGeometry width="50" height="50" relative="1" as="geometry">
            <mxPoint x="130" y="170" as="sourcePoint" />
            <mxPoint x="160" y="210" as="targetPoint" />
          </mxGeometry>
        </mxCell>
        <mxCell id="FfEpJe8ueplYhd8HVw07-22" style="edgeStyle=orthogonalEdgeStyle;rounded=0;orthogonalLoop=1;jettySize=auto;html=1;exitX=0.5;exitY=1;exitDx=0;exitDy=0;" edge="1" parent="1" source="FfEpJe8ueplYhd8HVw07-20" target="FfEpJe8ueplYhd8HVw07-20">
          <mxGeometry relative="1" as="geometry" />
        </mxCell>
      </root>
    </mxGraphModel>
  </diagram>
</mxfile>
